<svg width="40" height="40" viewBox="0 0 40 40" fill="none" xmlns="http://www.w3.org/2000/svg">
<g clip-path="url(#clip0_4_430)">
<path d="M29.2306 0C25.8322 0 23.0768 2.75846 23.0768 6.15385C23.0768 10.2538 28.4614 15.8554 28.4614 21.4908H29.9999C30.0014 15.8554 35.3845 10.4154 35.3845 6.15385C35.3845 2.75846 32.6291 0 29.2306 0ZM29.2306 2.98154C29.6474 2.98174 30.0601 3.06403 30.4451 3.22372C30.8301 3.38341 31.1799 3.61736 31.4744 3.91222C31.769 4.20709 32.0026 4.55708 32.1619 4.94223C32.3212 5.32737 32.4031 5.74013 32.4029 6.15692C32.4027 6.57372 32.3204 6.98639 32.1608 7.37138C32.0011 7.75638 31.7671 8.10614 31.4723 8.40072C31.1774 8.6953 30.8274 8.92891 30.4423 9.08823C30.0571 9.24754 29.6444 9.32943 29.2276 9.32923C28.3856 9.32882 27.5783 8.99396 26.9832 8.39832C26.3881 7.80268 26.0541 6.99504 26.0545 6.15308C26.0549 5.31112 26.3897 4.5038 26.9854 3.90874C27.581 3.31367 28.3887 2.97959 29.2306 2.98V2.98154ZM19.9999 3.07692C9.81987 3.07692 1.53833 11.3585 1.53833 21.5385C1.53833 31.7185 9.81987 40 19.9999 40C30.1799 40 38.4614 31.7185 38.4614 21.5385C38.4614 18.4462 37.6952 15.5446 36.346 12.98C36.1414 13.3862 35.9352 13.7723 35.7214 14.1831C35.3168 14.9646 34.8906 15.7538 34.5183 16.5385C34.9029 17.6385 35.1676 18.8015 35.2876 20H33.2691C33.1583 20.5154 33.0768 21 33.0768 21.4908V23.0769H35.2891C35.0803 25.2459 34.4077 27.3446 33.3168 29.2308H28.7999C29.1383 27.7877 29.3337 26.1923 29.4722 24.5677H26.4414C26.298 26.1418 26.0253 27.7014 25.626 29.2308H14.3737C13.8538 27.2173 13.5475 25.1546 13.4599 23.0769H25.3829V21.4908C25.371 20.9885 25.3066 20.4889 25.1906 20H13.4614C13.549 17.9223 13.8553 15.8596 14.3753 13.8462H22.5968C22.0632 12.8385 21.5654 11.8122 21.1045 10.7692H15.4322C16.7045 7.86615 18.386 6.15385 19.9999 6.15385C19.9999 5.08462 20.1922 4.08 20.5291 3.12462C20.3522 3.11846 20.1783 3.07692 19.9999 3.07692ZM13.6537 7.54769C13.041 8.57093 12.5259 9.64953 12.1153 10.7692H9.03833C10.3654 9.42046 11.9301 8.32831 13.6537 7.54769ZM6.68294 13.8462H11.1999C10.7346 15.8672 10.461 17.9276 10.3829 20H4.71064C4.91868 17.8309 5.59136 15.7321 6.68294 13.8462ZM4.71064 23.0769H10.3845C10.4753 25.2692 10.7583 27.3385 11.2014 29.2308H6.68294C5.59268 27.3443 4.9201 25.2457 4.71064 23.0769ZM9.03833 32.3077H12.1153C12.5583 33.5015 13.0768 34.5738 13.6537 35.5292C11.9301 34.7486 10.3654 33.6565 9.03833 32.3077ZM15.4322 32.3077H24.5676C23.2952 35.2108 21.6137 36.9231 19.9999 36.9231C18.386 36.9231 16.7029 35.2108 15.4322 32.3077ZM27.8845 32.3077H30.9614C29.6343 33.6565 28.0697 34.7486 26.346 35.5292C26.9229 34.5754 27.4414 33.5031 27.8845 32.3077Z" fill="white"/>
</g>
<defs>
<clipPath id="clip0_4_430">
<rect width="40" height="40" fill="white"/>
</clipPath>
</defs>
</svg>
