<svg width="37" height="37" viewBox="0 0 37 37" fill="none" xmlns="http://www.w3.org/2000/svg">
<path d="M26.2083 3.08331H10.7916C6.53445 3.08331 3.08331 6.53445 3.08331 10.7916V26.2083C3.08331 30.4655 6.53445 33.9166 10.7916 33.9166H26.2083C30.4655 33.9166 33.9166 30.4655 33.9166 26.2083V10.7916C33.9166 6.53445 30.4655 3.08331 26.2083 3.08331Z" stroke="#3E94FE" stroke-width="2" stroke-linecap="round" stroke-linejoin="round"/>
<path d="M24.6667 17.5288C24.8569 18.8118 24.6378 20.1222 24.0404 21.2735C23.443 22.4248 22.4978 23.3585 21.3392 23.9416C20.1806 24.5248 18.8676 24.7277 17.587 24.5217C16.3064 24.3156 15.1234 23.711 14.2062 22.7938C13.289 21.8767 12.6844 20.6936 12.4784 19.413C12.2723 18.1324 12.4753 16.8195 13.0584 15.6609C13.6416 14.5023 14.5752 13.5571 15.7265 12.9597C16.8778 12.3623 18.1882 12.1431 19.4712 12.3334C20.78 12.5274 21.9916 13.1373 22.9272 14.0728C23.8627 15.0084 24.4726 16.22 24.6667 17.5288Z" stroke="#3E94FE" stroke-width="2" stroke-linecap="round" stroke-linejoin="round"/>
<path d="M26.9791 10.0208H26.9925" stroke="#3E94FE" stroke-width="2" stroke-linecap="round" stroke-linejoin="round"/>
</svg>
