<svg width="37" height="37" viewBox="0 0 37 37" fill="none" xmlns="http://www.w3.org/2000/svg">
<path d="M30.2676 12.3288C30.2876 12.5986 30.2876 12.8668 30.2876 13.1351C30.2876 21.3445 24.0393 30.8041 12.6201 30.8041C9.10204 30.8041 5.83371 29.7851 3.08337 28.0153C3.58287 28.0723 4.06387 28.0923 4.58342 28.0923C7.37845 28.0991 10.0943 27.1645 12.2933 25.4391C10.9974 25.4157 9.74118 24.9881 8.70003 24.2162C7.65889 23.4442 6.88479 22.3664 6.48583 21.1333C6.86971 21.1903 7.25512 21.2288 7.65904 21.2288C8.21558 21.2288 8.77521 21.1518 9.29475 21.0176C7.88838 20.7337 6.62377 19.9714 5.71595 18.8604C4.80814 17.7493 4.31315 16.3582 4.31517 14.9234V14.8463C5.14304 15.3073 6.1035 15.5956 7.121 15.6341C6.26859 15.0677 5.56965 14.2991 5.08652 13.3968C4.6034 12.4946 4.35111 11.4868 4.35217 10.4634C4.35217 9.31021 4.65896 8.25263 5.197 7.33071C6.75738 9.25012 8.70353 10.8204 10.9094 11.9398C13.1153 13.0592 15.5317 13.7028 18.0021 13.8288C17.9065 13.3663 17.8479 12.8869 17.8479 12.4059C17.8475 11.5903 18.0079 10.7826 18.3198 10.029C18.6317 9.2754 19.0891 8.59068 19.6658 8.01396C20.2425 7.43724 20.9273 6.97985 21.6809 6.66792C22.4345 6.35599 23.2421 6.19564 24.0578 6.19605C25.8461 6.19605 27.4602 6.9453 28.5949 8.15705C29.9851 7.88821 31.3183 7.3807 32.5354 6.657C32.072 8.09201 31.1013 9.30883 29.8051 10.0795C31.0381 9.93887 32.2431 9.61462 33.3802 9.1175C32.531 10.3556 31.4786 11.4413 30.2676 12.3288Z" fill="#3E94FE"/>
</svg>
