<svg width="102" height="102" viewBox="0 0 102 102" fill="none" xmlns="http://www.w3.org/2000/svg">
<path d="M70.2908 39.0406C68.3151 38.3207 66.2267 37.9594 64.124 37.9738C57.324 37.9738 52.5215 41.3993 52.4875 46.3166C52.445 49.9291 55.9003 51.9648 58.514 53.1718C61.1958 54.4128 62.0925 55.1948 62.084 56.3041C62.067 57.9913 59.942 58.7563 57.9658 58.7563C55.25 58.7563 53.7668 58.3781 51.4845 57.4303L50.6388 57.0351L49.674 62.6961C51.3273 63.3846 54.3065 63.9753 57.3835 64.0263C64.6128 64.0263 69.3388 60.6221 69.394 55.3903C69.4535 52.5046 67.5835 50.3243 63.648 48.5223C61.2553 47.3536 59.772 46.5716 59.772 45.3858C59.772 44.3361 61.0428 43.2141 63.699 43.2141C65.4668 43.1713 67.2237 43.503 68.8543 44.1873L69.4918 44.4721L70.4565 39.0023L70.2908 39.0406ZM87.9368 38.4328H82.6243C80.971 38.4328 79.7258 38.8876 79.0033 40.5281L68.7863 63.6736H76.0155L77.4605 59.8783L86.2835 59.8868C86.4918 60.7751 87.1293 63.6736 87.1293 63.6736H93.5043L87.9368 38.4328ZM42.7083 38.2203H49.5975L45.288 63.4738H38.4073L42.7083 38.2118V38.2203ZM25.2195 52.1391L25.9335 55.6453L32.6655 38.4328H39.9628L29.121 63.6396H21.8408L15.8908 42.2961C15.7944 41.9441 15.5681 41.6419 15.2575 41.4503C13.113 40.3425 10.8407 39.5018 8.49152 38.9471L8.58502 38.4158H19.6733C21.1778 38.4753 22.389 38.9471 22.7928 40.5536L25.2153 52.1518V52.1391H25.2195ZM79.4368 54.7146L82.1823 47.6511C82.1483 47.7276 82.7475 46.1933 83.096 45.2456L83.5678 47.4258L85.1615 54.7103H79.4325V54.7146H79.4368Z" fill="#12171E" fill-opacity="0.654531"/>
</svg>
