<svg width="37" height="37" viewBox="0 0 37 37" fill="none" xmlns="http://www.w3.org/2000/svg">
<path d="M18.5093 29.3101H18.4785C18.3829 29.3101 8.81992 29.2916 6.40721 28.6364C5.7553 28.4608 5.16096 28.117 4.68369 27.6395C4.20642 27.1619 3.86297 26.5674 3.68771 25.9154C3.25386 23.4678 3.04435 20.9857 3.0618 18.5C3.0506 16.0102 3.26577 13.5246 3.70467 11.0738C3.88488 10.4207 4.22992 9.82487 4.70668 9.34352C5.18344 8.86217 5.77592 8.51143 6.42725 8.32498C8.77367 7.70831 18.073 7.70831 18.4677 7.70831H18.5C18.5972 7.70831 28.1848 7.72681 30.5728 8.38202C31.8971 8.74123 32.9316 9.77569 33.2893 11.1C33.7363 13.5574 33.9475 16.0503 33.9167 18.5478C33.9275 21.0345 33.7118 23.5171 33.2723 25.9647C33.0948 26.616 32.7499 27.2095 32.272 27.6863C31.7942 28.1631 31.1999 28.5066 30.5482 28.6827C28.2048 29.304 18.904 29.3101 18.5093 29.3101ZM15.426 13.8827L15.4183 23.1327L23.4534 18.5077L15.426 13.8827Z" fill="#3E94FE"/>
</svg>
