<svg width="26" height="26" viewBox="0 0 26 26" fill="none" xmlns="http://www.w3.org/2000/svg">
<path d="M20.6337 10.9152C20.6342 11.0755 20.5988 11.234 20.5301 11.3788C20.4614 11.5237 20.3611 11.6513 20.2365 11.7523L13.7969 16.9363C13.6048 17.0941 13.364 17.1804 13.1154 17.1804C12.8668 17.1804 12.6259 17.0941 12.4338 16.9363L5.99417 11.5699C5.77499 11.3877 5.63715 11.1259 5.61099 10.8421C5.58482 10.5583 5.67247 10.2757 5.85464 10.0566C6.03682 9.83738 6.2986 9.69955 6.58241 9.67338C6.86621 9.64722 7.14878 9.73486 7.36796 9.91704L13.1207 14.7146L18.8735 10.078C19.031 9.94679 19.2229 9.86342 19.4263 9.83779C19.6297 9.81216 19.8363 9.84534 20.0214 9.93341C20.2066 10.0215 20.3627 10.1607 20.4712 10.3347C20.5797 10.5087 20.636 10.7102 20.6337 10.9152Z" fill="#12171E" fill-opacity="0.654531"/>
</svg>
