<svg width="40" height="40" viewBox="0 0 40 40" fill="none" xmlns="http://www.w3.org/2000/svg">
<path d="M38.3333 13.3333V30C38.3333 31.8333 36.8333 33.3333 35 33.3333H8.33329C7.41663 33.3333 6.66663 32.5833 6.66663 31.6666C6.66663 30.75 7.41663 30 8.33329 30H35V13.3333C35 12.4166 35.75 11.6666 36.6666 11.6666C37.5833 11.6666 38.3333 12.4166 38.3333 13.3333ZM6.66663 26.6666C3.89996 26.6666 1.66663 24.4333 1.66663 21.6666V11.6666C1.66663 8.89996 3.89996 6.66663 6.66663 6.66663H26.6666C29.4333 6.66663 31.6666 8.89996 31.6666 11.6666V23.3333C31.6666 25.1666 30.1666 26.6666 28.3333 26.6666H6.66663ZM11.6666 16.6666C11.6666 19.4333 13.9 21.6666 16.6666 21.6666C19.4333 21.6666 21.6666 19.4333 21.6666 16.6666C21.6666 13.9 19.4333 11.6666 16.6666 11.6666C13.9 11.6666 11.6666 13.9 11.6666 16.6666Z" fill="white"/>
</svg>
