<svg width="30" height="30" viewBox="0 0 30 30" fill="none" xmlns="http://www.w3.org/2000/svg">
<path d="M2.5 7.49404C2.5 6.80654 3.0575 6.25029 3.74375 6.25029L13.7563 6.25029C14.0861 6.25029 14.4025 6.38133 14.6357 6.61458C14.869 6.84783 15 7.16418 15 7.49404C15 7.82391 14.869 8.14026 14.6357 8.37351C14.4025 8.60676 14.0861 8.73779 13.7563 8.73779L3.74375 8.73779C3.05625 8.73779 2.5 8.18154 2.5 7.49404V7.49404Z" fill="white"/>
<path d="M2.5 14.9999C2.5 14.3124 3.0575 13.7562 3.74375 13.7562L26.2563 13.7562C26.5861 13.7562 26.9025 13.8872 27.1357 14.1204C27.369 14.3537 27.5 14.67 27.5 14.9999C27.5 15.3298 27.369 15.6461 27.1357 15.8794C26.9025 16.1126 26.5861 16.2437 26.2563 16.2437L3.74375 16.2437C3.05625 16.2437 2.5 15.6862 2.5 14.9999V14.9999Z" fill="white"/>
<path d="M3.74375 21.2625C3.41389 21.2625 3.09754 21.3935 2.86429 21.6268C2.63104 21.86 2.5 22.1764 2.5 22.5063C2.5 22.8361 2.63104 23.1525 2.86429 23.3857C3.09754 23.619 3.41389 23.75 3.74375 23.75L18.7563 23.75C18.9196 23.75 19.0813 23.7178 19.2322 23.6553C19.3831 23.5928 19.5202 23.5012 19.6357 23.3857C19.7512 23.2702 19.8428 23.1331 19.9053 22.9822C19.9678 22.8313 20 22.6696 20 22.5063C20 22.3429 19.9678 22.1812 19.9053 22.0303C19.8428 21.8794 19.7512 21.7423 19.6357 21.6268C19.5202 21.5113 19.3831 21.4197 19.2322 21.3572C19.0813 21.2947 18.9196 21.2625 18.7563 21.2625H3.74375Z" fill="white"/>
</svg>
