<svg width="59" height="59" viewBox="0 0 59 59" fill="none" xmlns="http://www.w3.org/2000/svg">
<path d="M28.1577 41.843C28.2757 41.9438 28.4036 42.0446 28.5289 42.1429C26.0372 43.797 23.1122 44.6779 20.1214 44.675C18.1279 44.6766 16.1536 44.2852 14.3114 43.5232C12.4693 42.7612 10.7954 41.6436 9.38554 40.2342C7.97567 38.8247 6.85746 37.1512 6.09487 35.3093C5.33228 33.4674 4.94025 31.4932 4.94122 29.4997C4.94097 26.754 5.68538 24.0597 7.0952 21.7036C8.50502 19.3476 10.5275 17.418 12.9471 16.1204C15.3668 14.8227 18.0931 14.2057 20.8357 14.3349C23.5783 14.4641 26.2346 15.3347 28.5216 16.854C28.3986 16.9597 28.2757 17.0556 28.1823 17.1638C26.4103 18.6939 24.9885 20.5876 24.0137 22.7163C23.0389 24.8449 22.5339 27.1585 22.5331 29.4997C22.5331 34.232 24.5808 38.7307 28.1577 41.843ZM38.8785 14.3219C35.8904 14.3161 32.9677 15.1974 30.4808 16.854C30.6013 16.9597 30.7242 17.0556 30.8176 17.1638C34.4117 20.2687 36.4693 24.7699 36.4693 29.4997C36.4693 34.2295 34.4166 38.7258 30.8447 41.843C30.7242 41.9438 30.5964 42.0446 30.4735 42.1429C32.9631 43.7975 35.8867 44.6785 38.876 44.675C40.8853 44.7007 42.8797 44.3272 44.7435 43.5762C46.6072 42.8251 48.3033 41.7114 49.7333 40.2997C51.1633 38.888 52.2988 37.2064 53.0738 35.3525C53.8488 33.4985 54.248 31.5091 54.2482 29.4997C54.2483 27.4903 53.8495 25.5008 53.0748 23.6468C52.3 21.7927 51.1649 20.1109 49.7351 18.699C48.3053 17.2871 46.6094 16.1731 44.7457 15.4217C42.8821 14.6704 40.8878 14.2965 38.8785 14.3219ZM29.5 17.5768C27.6926 18.9939 26.2318 20.8041 25.2282 22.8699C24.2247 24.9358 23.7049 27.203 23.7081 29.4997C23.7034 31.7977 24.2225 34.0665 25.2261 36.1338C26.2297 38.2011 27.6914 40.0123 29.5 41.43C31.3081 40.0117 32.7695 38.2004 33.7734 36.1333C34.7774 34.0662 35.2975 31.7977 35.2943 29.4997C35.2976 27.2028 34.7775 24.9352 33.7735 22.8693C32.7696 20.8034 31.308 18.9934 29.5 17.5768Z" fill="#12171E" fill-opacity="0.654531"/>
</svg>
