<svg width="40" height="40" viewBox="0 0 40 40" fill="none" xmlns="http://www.w3.org/2000/svg">
<path d="M13.0599 8.016C13.9508 6.46419 15.3362 5.25586 16.9947 4.58413C18.6531 3.91241 20.4889 3.81608 22.2086 4.31054C23.9283 4.80501 25.4325 5.86172 26.4809 7.31177C27.5293 8.76182 28.0613 10.5215 27.9919 12.3095C27.9224 14.0975 27.2556 15.8106 26.0979 17.1749C24.9402 18.5393 23.3585 19.4762 21.6057 19.8358C19.8528 20.1954 18.03 19.957 16.4287 19.1587C14.8273 18.3604 13.5398 17.0482 12.7719 15.432C12.2589 15.8073 11.6395 16.0091 11.0039 16.008H10.0039V16.518C10.0039 16.898 10.1479 17.244 10.3839 17.506C10.5856 17.278 10.8519 17.1169 11.1475 17.044C11.443 16.9712 11.7537 16.9901 12.0382 17.0983C12.3227 17.2064 12.5675 17.3987 12.7401 17.6495C12.9126 17.9002 13.0046 18.1976 13.0039 18.502C13.0038 18.711 12.9599 18.9177 12.8752 19.1088C12.7905 19.2999 12.6668 19.4712 12.512 19.6117C12.3572 19.7522 12.1747 19.8587 11.9763 19.9246C11.7779 19.9904 11.568 20.0141 11.3599 19.994C10.4591 19.9624 9.60582 19.5823 8.97978 18.9339C8.35374 18.2855 8.00387 17.4193 8.00391 16.518V9.014C8.00391 8.74878 8.10926 8.49443 8.2968 8.30689C8.48434 8.11935 8.73869 8.014 9.00391 8.014H13.0039L13.0599 8.016ZM10.0039 14.008H11.0039C11.2691 14.008 11.5235 13.9026 11.711 13.7151C11.8986 13.5276 12.0039 13.2732 12.0039 13.008V12.268C11.998 12.0894 11.998 11.9106 12.0039 11.732V10.014H10.0039V14.008Z" fill="white"/>
<path d="M6 26C6 23.774 7.806 22 10.018 22H30C31.0609 22 32.0783 22.4214 32.8284 23.1716C33.5786 23.9217 34 24.9391 34 26C34 29.382 32.334 31.932 29.73 33.594C27.166 35.228 23.71 36 20 36C16.29 36 12.834 35.228 10.27 33.594C7.666 31.934 6 29.38 6 26Z" fill="white"/>
</svg>
